# xmcd CD database file
#
# Track frame offsets:
#	150
#	17874
#	42288
#	65103
#	84021
#	100872
#	119842
#	141622
#	159792
#	178902
#	199430
#
# Disc length: 2860 seconds
#
# Revision: 0
# Processed by: cddbd v1.5.2PL0 Copyright (c) Steve Scherf et al.
# Submitted via: CDex 1.70beta2
#
DISCID=a00b2a0b
DTITLE=Jane Meldgaard - Marble and Feathers
DYEAR=2009
DGENRE=New Age
TTITLE0=Why Don't You Dance
TTITLE1=Marble and Feathers
TTITLE2=They Say
TTITLE3=Mother Earth
TTITLE4=She's a Believer
TTITLE5=Ups and Downs
TTITLE6=Daughters
TTITLE7=I Choose
TTITLE8=Touch Me
TTITLE9=Isn't It Great
TTITLE10=It Worked Alright
EXTD=YEAR: 2009
EXTT0=
EXTT1=
EXTT2=
EXTT3=
EXTT4=
EXTT5=
EXTT6=
EXTT7=
EXTT8=
EXTT9=
EXTT10=
PLAYORDER=
